<mxfile host="app.diagrams.net" agent="Mozilla/5.0 (X11; Linux x86_64; rv:133.0) Gecko/20100101 Firefox/133.0" version="25.0.3">
  <diagram name="Page-1" id="_lW8ASoju0bMv21-uhq9">
    <mxGraphModel dx="761" dy="793" grid="1" gridSize="10" guides="1" tooltips="1" connect="1" arrows="1" fold="1" page="1" pageScale="1" pageWidth="850" pageHeight="1100" math="0" shadow="0">
      <root>
        <mxCell id="0" />
        <mxCell id="1" parent="0" />
        <mxCell id="DuARppV4RyR8luw45Tnp-12" value="agenda items" style="edgeStyle=orthogonalEdgeStyle;rounded=0;orthogonalLoop=1;jettySize=auto;html=1;exitX=0.5;exitY=1;exitDx=0;exitDy=0;" edge="1" parent="1" source="DuARppV4RyR8luw45Tnp-1" target="DuARppV4RyR8luw45Tnp-9">
          <mxGeometry relative="1" as="geometry" />
        </mxCell>
        <mxCell id="DuARppV4RyR8luw45Tnp-1" value="sync-elastic" style="rounded=0;whiteSpace=wrap;html=1;" vertex="1" parent="1">
          <mxGeometry x="150" y="940" width="120" height="60" as="geometry" />
        </mxCell>
        <mxCell id="DuARppV4RyR8luw45Tnp-22" value="agenda items" style="edgeStyle=orthogonalEdgeStyle;rounded=0;orthogonalLoop=1;jettySize=auto;html=1;exitX=1;exitY=0.75;exitDx=0;exitDy=0;entryX=0;entryY=0.75;entryDx=0;entryDy=0;" edge="1" parent="1" source="DuARppV4RyR8luw45Tnp-2" target="DuARppV4RyR8luw45Tnp-3">
          <mxGeometry relative="1" as="geometry" />
        </mxCell>
        <mxCell id="DuARppV4RyR8luw45Tnp-2" value="data-fetcher" style="rounded=0;whiteSpace=wrap;html=1;" vertex="1" parent="1">
          <mxGeometry x="30" y="660" width="120" height="60" as="geometry" />
        </mxCell>
        <mxCell id="DuARppV4RyR8luw45Tnp-21" value="GET request" style="edgeStyle=orthogonalEdgeStyle;rounded=0;orthogonalLoop=1;jettySize=auto;html=1;exitX=0;exitY=0.25;exitDx=0;exitDy=0;entryX=1;entryY=0.25;entryDx=0;entryDy=0;" edge="1" parent="1" source="DuARppV4RyR8luw45Tnp-3" target="DuARppV4RyR8luw45Tnp-2">
          <mxGeometry relative="1" as="geometry" />
        </mxCell>
        <mxCell id="DuARppV4RyR8luw45Tnp-3" value="data-store" style="rounded=0;whiteSpace=wrap;html=1;" vertex="1" parent="1">
          <mxGeometry x="220" y="660" width="120" height="60" as="geometry" />
        </mxCell>
        <mxCell id="DuARppV4RyR8luw45Tnp-14" value="GET request" style="edgeStyle=orthogonalEdgeStyle;rounded=0;orthogonalLoop=1;jettySize=auto;html=1;exitX=0;exitY=0.75;exitDx=0;exitDy=0;entryX=1;entryY=0.75;entryDx=0;entryDy=0;" edge="1" parent="1" source="DuARppV4RyR8luw45Tnp-4" target="DuARppV4RyR8luw45Tnp-9">
          <mxGeometry relative="1" as="geometry" />
        </mxCell>
        <mxCell id="DuARppV4RyR8luw45Tnp-25" value="agenda items" style="edgeStyle=orthogonalEdgeStyle;rounded=0;orthogonalLoop=1;jettySize=auto;html=1;exitX=0.75;exitY=0;exitDx=0;exitDy=0;entryX=0;entryY=0.75;entryDx=0;entryDy=0;" edge="1" parent="1" source="DuARppV4RyR8luw45Tnp-4" target="DuARppV4RyR8luw45Tnp-15">
          <mxGeometry relative="1" as="geometry" />
        </mxCell>
        <mxCell id="DuARppV4RyR8luw45Tnp-4" value="search-api" style="rounded=0;whiteSpace=wrap;html=1;" vertex="1" parent="1">
          <mxGeometry x="371" y="1037" width="120" height="60" as="geometry" />
        </mxCell>
        <mxCell id="DuARppV4RyR8luw45Tnp-7" value="pgAdmin" style="rounded=0;whiteSpace=wrap;html=1;" vertex="1" parent="1">
          <mxGeometry x="430" y="582" width="120" height="60" as="geometry" />
        </mxCell>
        <mxCell id="DuARppV4RyR8luw45Tnp-10" value="agenda items" style="edgeStyle=orthogonalEdgeStyle;rounded=0;orthogonalLoop=1;jettySize=auto;html=1;exitX=0.145;exitY=1;exitDx=0;exitDy=-4.35;exitPerimeter=0;entryX=0;entryY=0.75;entryDx=0;entryDy=0;" edge="1" parent="1" source="DuARppV4RyR8luw45Tnp-8" target="DuARppV4RyR8luw45Tnp-1">
          <mxGeometry relative="1" as="geometry">
            <Array as="points">
              <mxPoint x="69" y="985" />
            </Array>
          </mxGeometry>
        </mxCell>
        <mxCell id="DuARppV4RyR8luw45Tnp-8" value="Postgres" style="shape=cylinder3;whiteSpace=wrap;html=1;boundedLbl=1;backgroundOutline=1;size=15;" vertex="1" parent="1">
          <mxGeometry x="60" y="830" width="60" height="80" as="geometry" />
        </mxCell>
        <mxCell id="DuARppV4RyR8luw45Tnp-13" value="agenda items" style="edgeStyle=orthogonalEdgeStyle;rounded=0;orthogonalLoop=1;jettySize=auto;html=1;exitX=1;exitY=0.25;exitDx=0;exitDy=0;entryX=0;entryY=0.25;entryDx=0;entryDy=0;" edge="1" parent="1" source="DuARppV4RyR8luw45Tnp-9" target="DuARppV4RyR8luw45Tnp-4">
          <mxGeometry relative="1" as="geometry" />
        </mxCell>
        <mxCell id="DuARppV4RyR8luw45Tnp-9" value="elasticsearch" style="rounded=0;whiteSpace=wrap;html=1;" vertex="1" parent="1">
          <mxGeometry x="150" y="1037" width="120" height="60" as="geometry" />
        </mxCell>
        <mxCell id="DuARppV4RyR8luw45Tnp-11" value="SQL FETCH" style="edgeStyle=orthogonalEdgeStyle;rounded=0;orthogonalLoop=1;jettySize=auto;html=1;exitX=0;exitY=0.25;exitDx=0;exitDy=0;entryX=0.855;entryY=1;entryDx=0;entryDy=-4.35;entryPerimeter=0;" edge="1" parent="1" source="DuARppV4RyR8luw45Tnp-1" target="DuARppV4RyR8luw45Tnp-8">
          <mxGeometry relative="1" as="geometry" />
        </mxCell>
        <mxCell id="DuARppV4RyR8luw45Tnp-16" value="POST request" style="edgeStyle=orthogonalEdgeStyle;rounded=0;orthogonalLoop=1;jettySize=auto;html=1;exitX=0;exitY=0.5;exitDx=0;exitDy=0;entryX=0.5;entryY=0;entryDx=0;entryDy=0;" edge="1" parent="1" source="DuARppV4RyR8luw45Tnp-15" target="DuARppV4RyR8luw45Tnp-1">
          <mxGeometry relative="1" as="geometry" />
        </mxCell>
        <mxCell id="DuARppV4RyR8luw45Tnp-17" value="GET request" style="edgeStyle=orthogonalEdgeStyle;rounded=0;orthogonalLoop=1;jettySize=auto;html=1;exitX=0;exitY=0.5;exitDx=0;exitDy=0;entryX=0.5;entryY=0;entryDx=0;entryDy=0;" edge="1" parent="1" source="DuARppV4RyR8luw45Tnp-15" target="DuARppV4RyR8luw45Tnp-4">
          <mxGeometry relative="1" as="geometry" />
        </mxCell>
        <mxCell id="DuARppV4RyR8luw45Tnp-24" style="edgeStyle=orthogonalEdgeStyle;rounded=0;orthogonalLoop=1;jettySize=auto;html=1;exitX=0;exitY=0.5;exitDx=0;exitDy=0;entryX=1;entryY=0.5;entryDx=0;entryDy=0;" edge="1" parent="1" source="DuARppV4RyR8luw45Tnp-15" target="DuARppV4RyR8luw45Tnp-3">
          <mxGeometry relative="1" as="geometry" />
        </mxCell>
        <mxCell id="DuARppV4RyR8luw45Tnp-15" value="???" style="rounded=0;whiteSpace=wrap;html=1;" vertex="1" parent="1">
          <mxGeometry x="550" y="810" width="120" height="60" as="geometry" />
        </mxCell>
        <mxCell id="DuARppV4RyR8luw45Tnp-20" style="edgeStyle=orthogonalEdgeStyle;rounded=0;orthogonalLoop=1;jettySize=auto;html=1;exitX=0.31;exitY=0.8;exitDx=0;exitDy=0;exitPerimeter=0;entryX=0.25;entryY=0;entryDx=0;entryDy=0;" edge="1" parent="1" source="DuARppV4RyR8luw45Tnp-18" target="DuARppV4RyR8luw45Tnp-2">
          <mxGeometry relative="1" as="geometry">
            <Array as="points">
              <mxPoint x="60" y="574" />
            </Array>
          </mxGeometry>
        </mxCell>
        <mxCell id="DuARppV4RyR8luw45Tnp-18" value="Toronto City Council API" style="ellipse;shape=cloud;whiteSpace=wrap;html=1;" vertex="1" parent="1">
          <mxGeometry x="1" y="471" width="190" height="120" as="geometry" />
        </mxCell>
        <mxCell id="DuARppV4RyR8luw45Tnp-19" value="GET request" style="edgeStyle=orthogonalEdgeStyle;rounded=0;orthogonalLoop=1;jettySize=auto;html=1;exitX=0.75;exitY=0;exitDx=0;exitDy=0;entryX=0.8;entryY=0.8;entryDx=0;entryDy=0;entryPerimeter=0;" edge="1" parent="1" source="DuARppV4RyR8luw45Tnp-2" target="DuARppV4RyR8luw45Tnp-18">
          <mxGeometry relative="1" as="geometry" />
        </mxCell>
        <mxCell id="DuARppV4RyR8luw45Tnp-23" value="agenda items (SQL INSERT)" style="edgeStyle=orthogonalEdgeStyle;rounded=0;orthogonalLoop=1;jettySize=auto;html=1;exitX=0.25;exitY=1;exitDx=0;exitDy=0;entryX=0.145;entryY=0;entryDx=0;entryDy=4.35;entryPerimeter=0;" edge="1" parent="1" source="DuARppV4RyR8luw45Tnp-3" target="DuARppV4RyR8luw45Tnp-8">
          <mxGeometry relative="1" as="geometry" />
        </mxCell>
      </root>
    </mxGraphModel>
  </diagram>
</mxfile>
